<?xml version="1.0" encoding="UTF-8"?> <svg xmlns="http://www.w3.org/2000/svg" width="23" height="16" viewBox="0 0 23 16" fill="none"><rect x="0.25" y="0.25" width="22.5" height="15.5" rx="2.25" fill="white" stroke="#D9D9D9" stroke-width="0.5"></rect><path fill-rule="evenodd" clip-rule="evenodd" d="M11.7143 11.6976C10.8367 12.4339 9.69828 12.8784 8.45433 12.8784C5.67869 12.8784 3.42859 10.6654 3.42859 7.93554C3.42859 5.20567 5.67869 2.99268 8.45433 2.99268C9.69829 2.99268 10.8367 3.43717 11.7143 4.17347C12.5919 3.43718 13.7303 2.99269 14.9742 2.99269C17.7499 2.99269 20 5.20569 20 7.93555C20 10.6654 17.7499 12.8784 14.9742 12.8784C13.7303 12.8784 12.5919 12.4339 11.7143 11.6976Z" fill="#ED0006"></path><path fill-rule="evenodd" clip-rule="evenodd" d="M11.7142 11.6976C12.7948 10.791 13.48 9.44197 13.48 7.93554C13.48 6.4291 12.7948 5.08007 11.7142 4.17346C12.5918 3.43716 13.7302 2.99268 14.9742 2.99268C17.7498 2.99268 19.9999 5.20567 19.9999 7.93554C19.9999 10.6654 17.7498 12.8784 14.9742 12.8784C13.7302 12.8784 12.5918 12.4339 11.7142 11.6976Z" fill="#F9A000"></path><path fill-rule="evenodd" clip-rule="evenodd" d="M11.7143 11.6975C12.7948 10.7908 13.48 9.44182 13.48 7.9354C13.48 6.42898 12.7948 5.07995 11.7143 4.17334C10.6337 5.07995 9.94849 6.42898 9.94849 7.9354C9.94849 9.44182 10.6337 10.7908 11.7143 11.6975Z" fill="#FF5E00"></path></svg> 