<?xml version="1.0" encoding="UTF-8"?> <svg xmlns="http://www.w3.org/2000/svg" width="24" height="16" viewBox="0 0 24 16" fill="none"><rect x="0.25" y="0.25" width="23.5" height="15.5" rx="2.25" fill="white" stroke="#F3F3F3" stroke-width="0.5"></rect><path fill-rule="evenodd" clip-rule="evenodd" d="M3.88223 5.60098L3.91001 5.60061C4.10709 5.59737 4.58871 5.58945 4.79856 6.27411C4.94711 6.75875 5.18374 7.55262 5.50845 8.65571H5.6407C5.98892 7.49275 6.22813 6.69889 6.35833 6.27411C6.56782 5.59065 7.07275 5.59735 7.31759 5.60059C7.33318 5.6008 7.34771 5.60099 7.36104 5.60099L9.08018 5.601V10.7705H7.32799V7.72402H7.21049L6.23373 10.7705H4.91542L3.93866 7.72177H3.82116V10.7705H2.06897V5.601L3.88223 5.60098ZM11.5963 5.60102V8.64976H11.7361L12.9242 6.1428C13.1549 5.64391 13.6464 5.60102 13.6464 5.60102H15.342V10.7705H13.5533V7.72179H13.4135L12.2486 10.2287C12.018 10.7254 11.5031 10.7705 11.5031 10.7705H9.80753V5.60102H11.5963ZM19.6242 9.23156C20.4917 9.23156 21.2753 8.74165 21.5248 8.05758H16.0473V10.7727H17.7483V9.23156H19.6242Z" fill="#40A548"></path><path d="M19.7063 5.60107H15.9581C16.0473 6.75293 17.0726 7.73899 18.1341 7.73899H21.6431C21.8456 6.78167 21.1485 5.60107 19.7063 5.60107Z" fill="#1291D0"></path></svg> 