<?xml version="1.0" encoding="UTF-8"?> <svg xmlns="http://www.w3.org/2000/svg" width="16" height="11" viewBox="0 0 16 11" fill="none"><path d="M8.71455 11C3.24797 11 0.129919 6.87087 0 0H2.73829C2.82823 5.04304 4.84697 7.17918 6.44597 7.61962V0H9.02436V4.34935C10.6034 4.16216 12.2623 2.18018 12.822 0H15.4004C15.1895 1.1307 14.7691 2.2013 14.1655 3.14482C13.562 4.08835 12.7882 4.8845 11.8926 5.48348C12.8923 6.03079 13.7753 6.80546 14.4833 7.75637C15.1913 8.70728 15.7082 9.81281 16 11H13.1618C12.8999 9.96884 12.3676 9.04578 11.6316 8.34651C10.8956 7.64723 9.9886 7.20286 9.02436 7.06907V11H8.71455V11Z" fill="white"></path></svg> 