<?xml version="1.0" encoding="UTF-8"?> <svg xmlns="http://www.w3.org/2000/svg" width="23" height="16" viewBox="0 0 23 16" fill="none"><rect x="0.25" y="0.25" width="22.5" height="15.5" rx="2.25" fill="white" stroke="#D9D9D9" stroke-width="0.5"></rect><path fill-rule="evenodd" clip-rule="evenodd" d="M7.02517 10.8387H5.63182L4.58697 6.79475C4.53738 6.60873 4.43208 6.44428 4.27718 6.36677C3.89063 6.17199 3.46468 6.01697 3 5.93879V5.7831H5.24458C5.55437 5.7831 5.78671 6.01697 5.82543 6.28859L6.36756 9.2056L7.76023 5.7831H9.11486L7.02517 10.8387ZM9.88932 10.8387H8.57341L9.65698 5.7831H10.9729L9.88932 10.8387ZM12.6754 7.18365C12.7141 6.91136 12.9464 6.75567 13.2175 6.75567C13.6434 6.71657 14.1074 6.79476 14.4947 6.98886L14.727 5.90038C14.3398 5.74469 13.9138 5.6665 13.5273 5.6665C12.2501 5.6665 11.3207 6.36678 11.3207 7.33866C11.3207 8.07803 11.979 8.46624 12.4437 8.70011C12.9464 8.93331 13.14 9.089 13.1013 9.3222C13.1013 9.672 12.7141 9.82769 12.3275 9.82769C11.8629 9.82769 11.3982 9.71109 10.9729 9.51631L10.7406 10.6055C11.2052 10.7996 11.708 10.8778 12.1726 10.8778C13.6047 10.9162 14.4947 10.2166 14.4947 9.16651C14.4947 7.84415 12.6754 7.76664 12.6754 7.18365V7.18365ZM19.1 10.8387L18.0552 5.7831H16.9329C16.7005 5.7831 16.4682 5.93879 16.3907 6.17199L14.4559 10.8387H15.8106L16.081 10.1H17.7454L17.9003 10.8387H19.1ZM17.1265 7.14456L17.513 9.04992H16.4294L17.1265 7.14456Z" fill="#172B85"></path></svg> 